<svg width="392" height="414" viewBox="0 0 392 414" fill="none" xmlns="http://www.w3.org/2000/svg">
<g filter="url(#filter0_d_2002_2)">
<mask id="path-1-outside-1_2002_2" maskUnits="userSpaceOnUse" x="-0.703125" y="-0.319946" width="381" height="402" fill="black">
<rect fill="white" x="-0.703125" y="-0.319946" width="381" height="402"/>
<path d="M326.16 341.52L345.36 339.6C348.24 339.6 349.68 340.88 349.68 343.44C349.04 349.2 343.92 355.28 334.32 361.68C325.04 368.08 314.16 371.28 301.68 371.28C288.24 371.28 274.16 356.24 259.44 326.16C246.64 300.88 233.68 271.28 220.56 237.36C211.28 242.48 201.68 245.84 191.76 247.44C177.68 312.4 143.12 344.88 88.08 344.88C73.68 344.88 60.4 341.52 48.24 334.8C36.08 328.08 30 317.68 30 303.6C30 294.96 32.24 287.92 36.72 282.48C41.2 276.72 47.12 273.84 54.48 273.84C62.16 273.84 66 275.6 66 279.12C66 280.72 65.04 283.92 63.12 288.72C61.2 293.2 60.24 297.84 60.24 302.64C60.24 307.12 62.96 312.08 68.4 317.52C73.84 322.64 82 325.2 92.88 325.2C103.76 325.2 113.2 322.8 121.2 318C129.2 312.88 135.6 305.52 140.4 295.92C145.2 286.32 149.04 276.56 151.92 266.64C155.12 256.72 157.36 244.4 158.64 229.68C160.88 208.56 162 184.24 162 156.72C162 129.2 162.32 107.12 162.96 90.48C122 97.52 101.52 115.12 101.52 143.28C101.52 151.28 99.76 157.52 96.24 162C93.04 166.48 88.88 168.72 83.76 168.72C74.16 168.72 69.36 163.28 69.36 152.4C69.36 133.2 78 117.04 95.28 103.92C112.56 90.48 135.6 80.56 164.4 74.16C166.64 61.36 172.24 50.8 181.2 42.48C190.48 34.16 198.64 30 205.68 30C213.04 30 218.8 32.08 222.96 36.24C227.44 40.08 229.68 45.36 229.68 52.08C229.68 67.76 218.8 78.64 197.04 84.72L198.96 174C198.96 192.56 197.84 209.84 195.6 225.84C211.92 220.72 227.92 206.16 243.6 182.16C259.28 158.16 272.72 127.6 283.92 90.48C292.56 61.68 307.12 47.28 327.6 47.28C336.24 47.28 340.56 52.56 340.56 63.12C340.56 73.36 334.16 82.8 321.36 91.44C316.56 94.64 313.84 96.88 313.2 98.16C288.24 155.44 265.36 195.12 244.56 217.2C264.72 258.48 281.04 289.52 293.52 310.32C306.32 331.12 317.2 341.52 326.16 341.52ZM210 46.32C203.28 46.32 199.12 53.52 197.52 67.9201C209.04 64.4 214.8 59.76 214.8 54C214.8 48.88 213.2 46.32 210 46.32Z"/>
</mask>
<path d="M326.16 341.52L345.36 339.6C348.24 339.6 349.68 340.88 349.68 343.44C349.04 349.2 343.92 355.28 334.32 361.68C325.04 368.08 314.16 371.28 301.68 371.28C288.24 371.28 274.16 356.24 259.44 326.16C246.64 300.88 233.68 271.28 220.56 237.36C211.28 242.48 201.68 245.84 191.76 247.44C177.68 312.4 143.12 344.88 88.08 344.88C73.68 344.88 60.4 341.52 48.24 334.8C36.08 328.08 30 317.68 30 303.6C30 294.96 32.24 287.92 36.72 282.48C41.2 276.72 47.12 273.84 54.48 273.84C62.16 273.84 66 275.6 66 279.12C66 280.72 65.04 283.92 63.12 288.72C61.2 293.2 60.24 297.84 60.24 302.64C60.24 307.12 62.96 312.08 68.4 317.52C73.84 322.64 82 325.2 92.88 325.2C103.76 325.2 113.2 322.8 121.2 318C129.2 312.88 135.6 305.52 140.4 295.92C145.2 286.32 149.04 276.56 151.92 266.64C155.12 256.72 157.36 244.4 158.64 229.68C160.88 208.56 162 184.24 162 156.72C162 129.2 162.32 107.12 162.96 90.48C122 97.52 101.52 115.12 101.52 143.28C101.52 151.28 99.76 157.52 96.24 162C93.04 166.48 88.88 168.72 83.76 168.72C74.16 168.72 69.36 163.28 69.36 152.4C69.36 133.2 78 117.04 95.28 103.92C112.56 90.48 135.6 80.56 164.4 74.16C166.64 61.36 172.24 50.8 181.2 42.48C190.48 34.16 198.64 30 205.68 30C213.04 30 218.8 32.08 222.96 36.24C227.44 40.08 229.68 45.36 229.68 52.08C229.68 67.76 218.8 78.64 197.04 84.72L198.96 174C198.96 192.56 197.84 209.84 195.6 225.84C211.92 220.72 227.92 206.16 243.6 182.16C259.28 158.16 272.72 127.6 283.92 90.48C292.56 61.68 307.12 47.28 327.6 47.28C336.24 47.28 340.56 52.56 340.56 63.12C340.56 73.36 334.16 82.8 321.36 91.44C316.56 94.64 313.84 96.88 313.2 98.16C288.24 155.44 265.36 195.12 244.56 217.2C264.72 258.48 281.04 289.52 293.52 310.32C306.32 331.12 317.2 341.52 326.16 341.52ZM210 46.32C203.28 46.32 199.12 53.52 197.52 67.9201C209.04 64.4 214.8 59.76 214.8 54C214.8 48.88 213.2 46.32 210 46.32Z" fill="white"/>
<path d="M326.16 341.52V371.52H327.656L329.145 371.371L326.16 341.52ZM345.36 339.6V309.6H343.864L342.375 309.749L345.36 339.6ZM349.68 343.44L379.497 346.753L379.68 345.102V343.44H349.68ZM334.32 361.68L317.679 336.719L317.482 336.85L317.288 336.984L334.32 361.68ZM259.44 326.16L286.387 312.973L286.297 312.79L286.205 312.608L259.44 326.16ZM220.56 237.36L248.54 226.538L236.147 194.497L206.068 211.093L220.56 237.36ZM191.76 247.44L186.983 217.823L166.776 221.082L162.441 241.085L191.76 247.44ZM48.24 334.8L62.7506 308.543L48.24 334.8ZM36.72 282.48L59.8779 301.551L60.1438 301.228L60.4006 300.898L36.72 282.48ZM63.12 288.72L90.6944 300.538L90.8384 300.201L90.9743 299.862L63.12 288.72ZM68.4 317.52L47.1868 338.733L47.5081 339.055L47.8391 339.366L68.4 317.52ZM121.2 318L136.635 343.725L137.007 343.502L137.372 343.268L121.2 318ZM140.4 295.92L167.233 309.336L167.233 309.336L140.4 295.92ZM151.92 266.64L123.369 257.43L123.233 257.851L123.11 258.276L151.92 266.64ZM158.64 229.68L128.807 226.516L128.777 226.798L128.753 227.081L158.64 229.68ZM162.96 90.48L192.938 91.633L194.361 54.6432L157.878 60.9136L162.96 90.48ZM96.24 162L72.6505 143.465L72.2267 144.005L71.828 144.563L96.24 162ZM95.28 103.92L113.421 127.813L113.56 127.708L113.698 127.601L95.28 103.92ZM164.4 74.16L170.908 103.446L190.493 99.0935L193.951 79.3314L164.4 74.16ZM181.2 42.48L161.174 20.143L160.979 20.3179L160.786 20.4962L181.2 42.48ZM222.96 36.24L201.747 57.4532L202.561 58.2679L203.436 59.0177L222.96 36.24ZM197.04 84.72L188.967 55.8267L166.546 62.0912L167.047 85.3651L197.04 84.72ZM198.96 174H228.96V173.678L228.953 173.355L198.96 174ZM195.6 225.84L165.89 221.681L159.312 268.666L204.58 254.464L195.6 225.84ZM243.6 182.16L218.485 165.752L218.485 165.752L243.6 182.16ZM283.92 90.48L312.641 99.1459L312.648 99.1232L312.655 99.1005L283.92 90.48ZM321.36 91.44L338.001 116.402L338.073 116.354L338.144 116.305L321.36 91.44ZM313.2 98.16L286.367 84.7437L286.014 85.4509L285.698 86.1758L313.2 98.16ZM244.56 217.2L222.723 196.629L208.501 211.727L217.603 230.365L244.56 217.2ZM293.52 310.32L267.795 325.755L267.882 325.899L267.97 326.043L293.52 310.32ZM197.52 67.9201L167.703 64.6071L162.667 109.939L206.287 96.6106L197.52 67.9201ZM326.16 341.52L329.145 371.371L348.345 369.451L345.36 339.6L342.375 309.749L323.175 311.669L326.16 341.52ZM345.36 339.6V369.6C342.989 369.6 335.608 369.15 328.669 362.982C321.057 356.216 319.68 347.76 319.68 343.44H349.68H379.68C379.68 336.561 377.583 326.184 368.531 318.138C360.153 310.69 350.611 309.6 345.36 309.6V339.6ZM349.68 343.44L319.863 340.127C320.13 337.729 320.804 335.886 321.383 334.696C321.668 334.111 321.928 333.684 322.108 333.414C322.288 333.144 322.404 333.007 322.413 332.996C322.413 332.995 322.1 333.361 321.279 334.057C320.469 334.745 319.299 335.639 317.679 336.719L334.32 361.68L350.961 386.642C361.41 379.675 377.257 366.911 379.497 346.753L349.68 343.44ZM334.32 361.68L317.288 336.984C313.548 339.563 308.756 341.28 301.68 341.28V371.28V401.28C319.564 401.28 336.532 396.597 351.352 386.376L334.32 361.68ZM301.68 371.28V341.28C306.805 341.28 307.3 344.154 302.941 339.497C298.805 335.08 293.147 326.788 286.387 312.973L259.44 326.16L232.494 339.347C240.453 355.613 249.195 369.881 259.139 380.503C268.86 390.886 283.115 401.28 301.68 401.28V371.28ZM259.44 326.16L286.205 312.608C273.96 288.425 261.395 259.774 248.54 226.538L220.56 237.36L192.58 248.182C205.965 282.786 219.32 313.335 232.675 339.712L259.44 326.16ZM220.56 237.36L206.068 211.093C199.642 214.638 193.313 216.802 186.983 217.823L191.76 247.44L196.537 277.057C210.047 274.878 222.918 270.322 235.052 263.627L220.56 237.36ZM191.76 247.44L162.441 241.085C156.189 269.93 146.135 287.945 134.735 298.659C123.906 308.836 109.278 314.88 88.08 314.88V344.88V374.88C121.922 374.88 152.094 364.684 175.825 342.381C198.985 320.615 213.251 289.91 221.079 253.795L191.76 247.44ZM88.08 344.88V314.88C78.5631 314.88 70.3027 312.716 62.7506 308.543L48.24 334.8L33.7294 361.057C50.4973 370.324 68.7969 374.88 88.08 374.88V344.88ZM48.24 334.8L62.7506 308.543C61.654 307.937 61.0662 307.454 60.791 307.196C60.5338 306.954 60.4677 306.834 60.4589 306.819C60.4491 306.802 60.3583 306.653 60.2554 306.239C60.1465 305.8 60 304.961 60 303.6H30H0C0 315.054 2.51181 326.582 8.6611 337.101C14.8226 347.64 23.658 355.491 33.7294 361.057L48.24 334.8ZM30 303.6H60C60 301.857 60.2267 301.065 60.2678 300.936C60.2876 300.874 60.2726 300.937 60.1941 301.083C60.1142 301.231 60.0054 301.396 59.8779 301.551L36.72 282.48L13.5621 263.409C3.72524 275.354 0 289.627 0 303.6H30ZM36.72 282.48L60.4006 300.898C60.132 301.244 59.2414 302.2 57.644 302.977C56.0546 303.75 54.806 303.84 54.48 303.84V273.84V243.84C37.9559 243.84 23.2604 250.921 13.0394 264.062L36.72 282.48ZM54.48 273.84V303.84C56.9701 303.84 54.6345 304.272 50.6204 302.432C48.2398 301.341 44.3309 299.011 41.0179 294.455C37.4713 289.579 36 284.055 36 279.12H66H96C96 272.425 94.0487 265.361 89.5421 259.165C85.2691 253.29 79.9202 249.859 75.6196 247.888C67.7655 244.288 59.6699 243.84 54.48 243.84V273.84ZM66 279.12H36C36 277.867 36.091 276.869 36.1687 276.221C36.2488 275.553 36.3408 275.045 36.4026 274.737C36.5197 274.151 36.6049 273.901 36.5452 274.1C36.4957 274.265 36.3767 274.638 36.1534 275.258C35.9337 275.869 35.6424 276.636 35.2657 277.578L63.12 288.72L90.9743 299.862C92.1074 297.029 93.1806 294.121 94.0148 291.34C94.6282 289.296 96 284.56 96 279.12H66ZM63.12 288.72L35.5457 276.902C32.0506 285.058 30.24 293.713 30.24 302.64H60.24H90.24C90.24 301.967 90.3494 301.343 90.6944 300.538L63.12 288.72ZM60.24 302.64H30.24C30.24 319.163 39.8861 331.433 47.1868 338.733L68.4 317.52L89.6132 296.307C88.2334 294.927 88.1865 294.57 88.5844 295.295C89.0244 296.098 90.24 298.681 90.24 302.64H60.24ZM68.4 317.52L47.8391 339.366C60.933 351.69 77.8134 355.2 92.88 355.2V325.2V295.2C89.699 295.2 88.088 294.815 87.5802 294.656C87.1958 294.535 87.9348 294.708 88.9609 295.674L68.4 317.52ZM92.88 325.2V355.2C108.282 355.2 123.245 351.759 136.635 343.725L121.2 318L105.765 292.275C103.155 293.842 99.2383 295.2 92.88 295.2V325.2ZM121.2 318L137.372 343.268C150.499 334.867 160.335 323.133 167.233 309.336L140.4 295.92L113.567 282.504C110.865 287.907 107.901 290.893 105.028 292.732L121.2 318ZM140.4 295.92L167.233 309.336C172.812 298.179 177.326 286.731 180.73 275.004L151.92 266.64L123.11 258.276C120.754 266.389 117.588 274.461 113.567 282.504L140.4 295.92ZM151.92 266.64L180.471 275.85C184.584 263.1 187.126 248.395 188.527 232.279L158.64 229.68L128.753 227.081C127.594 240.405 125.656 250.34 123.369 257.43L151.92 266.64ZM158.64 229.68L188.473 232.844C190.851 210.419 192 185.006 192 156.72H162H132C132 183.474 130.909 206.701 128.807 226.516L158.64 229.68ZM162 156.72H192C192 129.372 192.319 107.723 192.938 91.633L162.96 90.48L132.982 89.3271C132.321 106.517 132 129.028 132 156.72H162ZM162.96 90.48L157.878 60.9136C134.699 64.8975 113.335 72.4508 97.327 86.2075C80.1372 100.98 71.52 120.884 71.52 143.28H101.52H131.52C131.52 137.516 133.143 134.54 136.433 131.713C140.905 127.869 150.261 123.103 168.042 120.047L162.96 90.48ZM101.52 143.28H71.52C71.52 144.188 71.4696 144.841 71.4165 145.27C71.3636 145.699 71.313 145.864 71.3265 145.816C71.3413 145.764 71.4243 145.487 71.6373 145.055C71.8539 144.615 72.1813 144.063 72.6505 143.465L96.24 162L119.83 180.535C128.893 169 131.52 155.339 131.52 143.28H101.52ZM96.24 162L71.828 144.563C72.4542 143.686 73.9226 142.012 76.497 140.626C79.1485 139.198 81.7813 138.72 83.76 138.72V168.72V198.72C99.393 198.72 112.318 191.105 120.652 179.437L96.24 162ZM83.76 168.72V138.72C84.6264 138.72 90.4673 139.138 95.4551 144.791C99.8109 149.728 99.36 154.075 99.36 152.4H69.36H39.36C39.36 161.605 41.3091 174.112 50.4649 184.489C60.2527 195.582 73.2936 198.72 83.76 198.72V168.72ZM69.36 152.4H99.36C99.36 143.892 102.502 136.104 113.421 127.813L95.28 103.92L77.1387 80.0267C53.4976 97.9764 39.36 122.509 39.36 152.4H69.36ZM95.28 103.92L113.698 127.601C126.475 117.663 145.013 109.2 170.908 103.446L164.4 74.16L157.892 44.8744C126.187 51.9201 98.6454 63.2967 76.8618 80.2395L95.28 103.92ZM164.4 74.16L193.951 79.3314C195.138 72.5507 197.765 68.0379 201.614 64.4638L181.2 42.48L160.786 20.4962C146.715 33.5622 138.142 50.1694 134.849 68.9886L164.4 74.16ZM181.2 42.48L201.226 64.8171C204.576 61.8137 206.802 60.4099 207.906 59.8472C208.992 59.2933 208.104 60 205.68 60V30V2.67029e-05C187.345 2.67029e-05 172.115 10.3332 161.174 20.143L181.2 42.48ZM205.68 30V60C206.567 60 206.303 60.1277 205.331 59.7766C204.241 59.383 202.911 58.6173 201.747 57.4532L222.96 36.24L244.173 15.0269C233.053 3.90679 218.887 2.67029e-05 205.68 2.67029e-05V30ZM222.96 36.24L203.436 59.0177C202.265 58.0142 201.124 56.5437 200.383 54.7965C199.684 53.1504 199.68 52.0639 199.68 52.08H229.68H259.68C259.68 37.9593 254.579 23.8294 242.484 13.4624L222.96 36.24ZM229.68 52.08H199.68C199.68 52.4629 199.629 52.1785 199.879 51.568C200.134 50.9462 200.419 50.6751 200.307 50.7868C199.829 51.2644 197.047 53.5692 188.967 55.8267L197.04 84.72L205.113 113.613C218.793 109.791 232.331 103.616 242.733 93.2132C253.918 82.028 259.68 67.7064 259.68 52.08H229.68ZM197.04 84.72L167.047 85.3651L168.967 174.645L198.96 174L228.953 173.355L227.033 84.075L197.04 84.72ZM198.96 174H168.96C168.96 191.369 167.911 207.244 165.89 221.681L195.6 225.84L225.31 229.999C227.769 212.436 228.96 193.751 228.96 174H198.96ZM195.6 225.84L204.58 254.464C230.725 246.262 251.593 224.775 268.715 198.568L243.6 182.16L218.485 165.752C204.247 187.545 193.115 195.178 186.62 197.216L195.6 225.84ZM243.6 182.16L268.715 198.568C286.401 171.499 300.885 138.11 312.641 99.1459L283.92 90.48L255.199 81.8142C244.555 117.09 232.159 144.821 218.485 165.752L243.6 182.16ZM283.92 90.48L312.655 99.1005C316.16 87.4172 319.99 81.8095 322.416 79.4101C324.079 77.7652 325.258 77.28 327.6 77.28V47.28V17.28C309.462 17.28 293.121 23.9948 280.224 36.75C268.09 48.7506 260.32 64.7429 255.185 81.8596L283.92 90.48ZM327.6 47.28V77.28C326.762 77.28 324.661 77.1569 321.951 76.0528C319.057 74.8739 316.276 72.8953 314.101 70.2372C310.038 65.2715 310.56 61.1656 310.56 63.12H340.56H370.56C370.56 54.5145 368.922 42.4886 360.539 32.2429C351.213 20.845 338.311 17.28 327.6 17.28V47.28ZM340.56 63.12H310.56C310.56 62.496 310.667 61.8765 310.831 61.3722C310.986 60.8939 311.107 60.7822 310.929 61.0453C310.488 61.6952 308.859 63.6832 304.576 66.5746L321.36 91.44L338.144 116.305C354.782 105.075 370.56 87.6892 370.56 63.12H340.56ZM321.36 91.44L304.719 66.4785C301.935 68.3346 299.12 70.3273 296.649 72.3621C295.46 73.341 289.853 77.7724 286.367 84.7437L313.2 98.16L340.033 111.576C339.044 113.554 338.029 114.993 337.386 115.835C336.711 116.72 336.128 117.36 335.771 117.734C335.088 118.45 334.665 118.782 334.791 118.678C335.04 118.473 335.985 117.745 338.001 116.402L321.36 91.44ZM313.2 98.16L285.698 86.1758C260.973 142.916 239.769 178.534 222.723 196.629L244.56 217.2L266.397 237.771C290.951 211.706 315.507 167.964 340.702 110.144L313.2 98.16ZM244.56 217.2L217.603 230.365C237.871 271.866 254.64 303.83 267.795 325.755L293.52 310.32L319.245 294.885C307.44 275.21 291.569 245.094 271.517 204.035L244.56 217.2ZM293.52 310.32L267.97 326.043C274.992 337.454 282.47 347.682 290.551 355.406C298.021 362.547 310.147 371.52 326.16 371.52V341.52V311.52C329.836 311.52 332.244 312.599 333.008 312.999C333.698 313.361 333.35 313.315 332.009 312.034C329.21 309.358 324.848 303.986 319.07 294.597L293.52 310.32ZM210 46.32V16.32C193.252 16.32 181.817 26.4082 175.864 36.7117C170.707 45.6365 168.671 55.8976 167.703 64.6071L197.52 67.9201L227.337 71.233C227.617 68.7127 227.947 67.0991 228.187 66.1999C228.445 65.2344 228.459 65.6158 227.816 66.7284C227.152 67.8771 225.423 70.4201 221.996 72.688C218.291 75.1397 214.02 76.32 210 76.32V46.32ZM197.52 67.9201L206.287 96.6106C213.695 94.347 222.151 90.9219 229.3 85.1626C237.07 78.9034 244.8 68.4291 244.8 54H214.8H184.8C184.8 50.1882 185.815 46.5752 187.476 43.575C189.035 40.7612 190.791 39.1373 191.66 38.4374C193.049 37.3182 192.865 37.973 188.753 39.2295L197.52 67.9201ZM214.8 54H244.8C244.8 49.286 244.238 40.6577 239.04 32.3401C232.372 21.6718 221.195 16.32 210 16.32V46.32V76.32C206.745 76.32 202.435 75.6452 197.982 73.2706C193.453 70.8549 190.23 67.4527 188.16 64.14C186.216 61.0289 185.448 58.2815 185.131 56.7587C184.807 55.2044 184.8 54.1907 184.8 54H214.8Z" fill="#C15F3C" mask="url(#path-1-outside-1_2002_2)"/>
</g>
<defs>
<filter id="filter0_d_2002_2" x="0" y="0" width="391.68" height="413.28" filterUnits="userSpaceOnUse" color-interpolation-filters="sRGB">
<feFlood flood-opacity="0" result="BackgroundImageFix"/>
<feColorMatrix in="SourceAlpha" type="matrix" values="0 0 0 0 0 0 0 0 0 0 0 0 0 0 0 0 0 0 127 0" result="hardAlpha"/>
<feOffset dx="10" dy="10"/>
<feGaussianBlur stdDeviation="1"/>
<feComposite in2="hardAlpha" operator="out"/>
<feColorMatrix type="matrix" values="0 0 0 0 0.756863 0 0 0 0 0.372549 0 0 0 0 0.235294 0 0 0 0.25 0"/>
<feBlend mode="normal" in2="BackgroundImageFix" result="effect1_dropShadow_2002_2"/>
<feBlend mode="normal" in="SourceGraphic" in2="effect1_dropShadow_2002_2" result="shape"/>
</filter>
</defs>
</svg>
